<?xml version="1.0" encoding="UTF-8"?>
<svg id="_レイヤー_1" data-name="レイヤー_1" xmlns="http://www.w3.org/2000/svg" version="1.1" viewBox="0 0 426.25 345.6">
  <!-- Generator: Adobe Illustrator 29.8.2, SVG Export Plug-In . SVG Version: 2.1.1 Build 3)  -->
  <defs>
    <style>
      .st0 {
        fill: none;
        stroke: #000;
        stroke-width: .72px;
      }
    </style>
  </defs>
  <g id="figure_1">
    <g id="axes_1">
      <g id="patch_3">
        <path class="st0" d="M72.35,146.42l1.42-.71,2.91,1.59,3.59,1.89,5.16,2.46,4.35,1.88,1.38.64,4.03,1.83,2.53.26,2.67.41-5.09,1.89-2.79,1.38-2.59.43-2.11.12-2.46-.02-2.02-.05-2.36-.49-2.54-.18-1.82.25-2.24-1.51-1.78-1.28-1.07-2.01-.71-1.57-.05-1.62.15-2.04.49-2.03.97-1.52"/>
      </g>
      <g id="patch_4">
        <path class="st0" d="M101.53,156.85l-3.79-.54-2.61-.29-4.01-1.81-5.71-2.58-5.08-2.37-3.61-1.96-2.92-1.58-3.24-2.35-2.57-1.87,3.19-.58,2.94-.31,4.05.11,3.19.5,4.24,1.17,4.32,2.43,4.2,3.73,7.4,8.3"/>
      </g>
      <g id="patch_5">
        <path class="st0" d="M71.63,163.63l2.68-2.4,2.4-1.22,1.93-.2,2.42.2,2.38.39,2.03.19,2.33-.02,2.17-.18,2.56-.48,2.92-1.36,4.85-1.83,1.24.13-.5,1.13-1.1,1.31-2.9,1.45-2.18.72-2.18.72-2.52.5-2.56.22h-3.63l-2.76-.39-2.37-.48-2.31-.33-1.71.34-3.18,1.59"/>
      </g>
      <g id="patch_6">
        <path class="st0" d="M58.51,142.25l1.6-4.19,1.75-2.96,1.9-2.13,3.51-2.47,4.58-2.41,2.35-.92,2.9-.87,2.22-.4,2.45.04,3.89,1.02,3.31,1.48,3.7,2.07,2.9,2.72,2.52,2.65,3.14,3.6,1.6,3.44-3.71-2.63-2.92-2.63-3.04-2.28-3.4-1.46-4.16-1.05-3.43-.48-3.36-.21-3.76.51-4.88,1.24-3.35,1.32-3.19,2.11-5.13,4.91"/>
      </g>
      <g id="patch_7">
        <path class="st0" d="M168.87,15.71l10.27.03,20.03.95,18.9,1.41,7.92.82,16.4,2.07,8.25,1.44,10.61,2.21,11.26,3.35,11.1,4.35,7.71,3.48,7.3,3.77,7.87,4.3,8.06,5.77,6.89,6.87,3.34,8.34.83,10.78v23.77l-1.11,11.13-1.93,8.23-12.92,36.18-11.61,22.51-10.89,22.53-2.18,8.57-.73,9.81v14.22l1.45,10.98,2.18,8.63,7.98,13.88,9.43,11.14,7.26,7.38,11.61,10.39,14.51,7.77,14.51,5.64,37.4,15.23,16.27,6.25-330.12-.22-5.37-12.1-4.55-5.14-5.37-3.66-12.02-3.28-9.02-3.11-6.9-2.66-4.99-2.28-4.8-3.29-3.63-4.42-.73-3.22v-5.27l3.8-5.48,4.91-4.76,6.53-6,6.53-5.68,1.45-6.49v-6.11l-2.9-1.87-2.4-1.31-1.31-1.33-.51-1.59.42-1.82.91-1.61,1.28-1.69,1.45-.86,2.35-.06,11.61,1.96-8.71-3.27-4.51-1.32-.84-.86-.45-1.24-.12-1.91.84-4.06.86-2.27.7-1.51,1.72-2.45,1.53-1.85.99-1.58-5.81-2.32-3.97-2.15-3.91-2.36-4.73-2.27-1.11-.96-.83-1.39-.35-1.76-.04-2.11.43-2.33,4.8-8.6,5.25-6.12,4.77-5.94,3.32-5.02,4.69-5.82,3.29-5.8,4.35-6.47v-2.85l-5.08-7.06-1.84-4.61-1.79-5.08.73-6.08,3.63-5.95,1.45-7.72v-7.45l-1.45-4.81-2.9-2.94-3.63-4.03-2.56-4.82-1.06-3.47v-6.28l.73-5.97,2.9-6.58,5.08-8.27,5.08-8.67,5.08-5.39,7.98-6.25,12.34-7.59,10.16-3.67,13.06-4.09,10.89-2.23,10.89-1.9,12.34-1.42,11.61-.98,11.61-.76,7.98-.19h0"/>
      </g>
      <g id="patch_8">
        <path class="st0" d="M71.14,149.39l2.01.51,1.51.85,1.08,1.22.73,1.62.13,1.43-.19,1.3-.25,1-.68.75-1.22.4-1.55-1.19-1.22-2.08-.63-1.58-.14-1.6.17-2.08.25-.55"/>
      </g>
      <g id="patch_9">
        <path class="st0" d="M32.12,207.48l2.09-1.55,1.86-.9,2.13-.27,2.22.27,2.18.71,1.3.96.83,1.35.05,1.95-.62,1.69-1.02,1.61"/>
      </g>
      <g id="patch_10">
        <path class="st0" d="M41.87,212.82l3.8,1.41,3.07-.59,2.84-.72,2.63-.79,2.18-.7,2.9-1.41,2.9-2.08,1.81-2.18.36-2.86-.58-2.83-.87-2.92-2.09-2.81-2.27-2.26"/>
      </g>
      <g id="patch_11">
        <path class="st0" d="M200.8,165.81l2.04-3.07,3.04-2.01,3.27-.44,3.99.44,3.49.81,3.77,1.36,3.08,1.47,3.38,2.17,3.45,3.21,1.7,1.82.76,1.15.68,1.37.46,1.65.17,1.68.11,3.72-.16,4.2-.57,3.82-.82,3.3-1.43,5-1.6,5.01-1.96,4.71-1.67,2.27-1.44,1.31-2.5.95-2.37,1.12-3.63,2.8-3.63,3.47-1.75,3.08-1.88,2.41-2.97,1.95-2.84,1.91-2.89,1.33-2.69-.12-2.63-.68-2.88-.68-1.97-1.01-1.96-1.15-1.67-1.56-.29-2.02.29-2.08.46-1.7.99-1.76"/>
      </g>
      <g id="patch_12">
        <path class="st0" d="M201.46,189.89l-1.45,1.95-1.46,2.4-1.38,3.61-.73,3.6.53,2.29.92,2,.93,1.48,1.98,1.36,2.1.36,2.04-.57,1.17-1.63.95-1.62,1.01-1.52,1.97-1.3,1.66-1.57,2.9-.72,1.5-1.27,1.4-1.61.73-3.62-.14-2.96-.59-2.12-1.7-2.3-1.93-1.34"/>
      </g>
      <g id="patch_13">
        <path class="st0" d="M221.85,202.89l1.56-2.18,1.41-1.92.98-1.51,1.25-1.81,1.33-2.69.83-2.05.62-2.31.22-3.09.07-2.74-.29-2.92-.47-2.51-.98-2.6-.73-1.46"/>
      </g>
    </g>
  </g>
</svg>